# File created by Blade
# Date/Time:  Tue Jan 27 19:54:25 2015
# Frame Rate: 120.000 fps
#------------------------------------------------------
:FULLY-SPECIFIED
:DEGREES
2359
root 8.151269 32.940713 0.189019 3.671910 -27.739671 -19.769748
Spine 9.026719 18.598694 17.971369
Head 5.677530 -3.631715 0.416212
LeftShoulder -18.019633 1.335910 27.492595
LeftArm -5.305318 -22.041072 -80.869083
LeftForeArm -51.419854 -0.000000 133.207278
LeftHand 4.857515 0.000000 -32.985508
LeftHandThumb1 -26.253704 0.000000 33.147579
RightShoulder -17.264291 -18.359618 -23.607837
RightArm 2.271073 -12.179847 81.775478
RightForeArm -19.057563 -0.000000 20.250787
RightHand 17.370685 0.000000 7.904581
RightHandThumb1 -24.326973 -0.000000 -32.862282
LeftUpLeg 10.938696 18.607179 5.918718
LeftLeg -2.971893 -0.000000 0.000000
LeftFoot -22.769739 25.393353 -17.047111
LeftToeBase 21.416946 -0.000000 -0.000000
RightUpLeg -90.792050 -48.797290 6.828240
RightLeg 121.806815 -0.000000 -0.000000
RightFoot 20.547588 -33.066305 24.959743
RightToeBase 13.204714 -0.000000 -0.000000
2360
root 8.157234 32.939130 0.193016 3.623968 -27.653014 -19.735060
Spine 9.047628 18.501546 17.940104
Head 5.644440 -3.575456 0.412528
LeftShoulder -18.035944 1.351373 27.478205
LeftArm -5.257732 -21.974257 -80.860581
LeftForeArm -51.434315 -0.000000 133.228151
LeftHand 4.885312 -0.000000 -32.966055
LeftHandThumb1 -26.253704 0.000000 33.147579
RightShoulder -17.249543 -18.309718 -23.621507
RightArm 2.250633 -12.199663 81.777046
RightForeArm -19.062424 -0.000000 20.267246
RightHand 17.345377 -0.000000 7.952116
RightHandThumb1 -24.326973 -0.000000 -32.862282
LeftUpLeg 10.924758 18.531495 5.890596
LeftLeg -2.916377 -0.000000 0.000000
LeftFoot -22.812193 25.347166 -17.111331
LeftToeBase 21.458680 -0.000000 -0.000000
RightUpLeg -90.656544 -48.768498 6.770062
RightLeg 121.842198 -0.000000 -0.000000
RightFoot 20.684759 -33.003918 24.933585
RightToeBase 12.999117 -0.000000 -0.000000
2361
root 8.161767 32.937709 0.197716 3.573484 -27.558126 -19.706636
Spine 9.065822 18.407040 17.921267
Head 5.632725 -3.542574 0.400694
LeftShoulder -18.035436 1.390237 27.431384
LeftArm -5.163628 -21.911171 -80.855162
LeftForeArm -51.495538 -0.000000 133.282835
LeftHand 4.887729 -0.000000 -32.874596
LeftHandThumb1 -26.253704 0.000000 33.147579
RightShoulder -17.235112 -18.298607 -23.637947
RightArm 2.236546 -12.172992 81.792687
RightForeArm -19.083503 -0.000000 20.311427
RightHand 17.399251 0.000000 7.962746
RightHandThumb1 -24.326973 -0.000000 -32.862282
LeftUpLeg 10.924133 18.473453 5.871974
LeftLeg -2.866633 -0.000000 0.000000
LeftFoot -22.857086 25.278993 -17.149172
LeftToeBase 21.541081 -0.000000 -0.000000
RightUpLeg -90.509202 -48.739333 6.714763
RightLeg 121.873539 -0.000000 -0.000000
RightFoot 20.683422 -32.927685 25.059377
RightToeBase 13.342794 -0.000000 -0.000000
2362
root 8.165897 32.935549 0.201910 3.537271 -27.482526 -19.674383
Spine 9.067984 18.320353 17.883818
Head 5.618204 -3.491587 0.406602
LeftShoulder -18.050164 1.429688 27.395564
LeftArm -5.079991 -21.860412 -80.841569
LeftForeArm -51.571326 0.000000 133.346486
LeftHand 4.843779 -0.000000 -32.805965
LeftHandThumb1 -26.253704 0.000000 33.147579
RightShoulder -17.204921 -18.299847 -23.654447
RightArm 2.239458 -12.161179 81.801477
RightForeArm -19.066783 0.000000 20.352979
RightHand 17.428830 -0.000000 7.985683
RightHandThumb1 -24.326973 -0.000000 -32.862282
LeftUpLeg 10.919383 18.459171 5.852730
LeftLeg -2.850827 -0.000000 0.000000
LeftFoot -22.854022 25.244903 -17.165368
LeftToeBase 21.455271 -0.000000 -0.000000
RightUpLeg -90.390320 -48.703174 6.675916
RightLeg 121.906030 -0.000000 -0.000000
RightFoot 20.987845 -32.792811 24.933655
RightToeBase 13.055822 -0.000000 -0.000000
2363
root 8.171254 32.932909 0.204890 3.515372 -27.416223 -19.639742
Spine 9.060937 18.266277 17.842229
Head 5.587352 -3.465470 0.415516
LeftShoulder -18.071065 1.459481 27.369081
LeftArm -4.976414 -21.767281 -80.844873
LeftForeArm -51.603519 -0.000000 133.412016
LeftHand 4.843249 0.000000 -32.848275
LeftHandThumb1 -26.253704 0.000000 33.147579
RightShoulder -17.191049 -18.320169 -23.663583
RightArm 2.257451 -12.156699 81.807051
RightForeArm -19.011578 -0.000000 20.385948
RightHand 17.426930 -0.000000 8.080555
RightHandThumb1 -24.326973 -0.000000 -32.862282
LeftUpLeg 10.888456 18.426285 5.813291
LeftLeg -2.803456 -0.000000 0.000000
LeftFoot -22.801472 25.218840 -17.062613
LeftToeBase 21.265586 -0.000000 -0.000000
RightUpLeg -90.315448 -48.634825 6.675300
RightLeg 121.938277 -0.000000 -0.000000
RightFoot 21.170182 -32.692899 24.887610
RightToeBase 13.097643 -0.000000 -0.000000
